<svg width="1920" height="600" xmlns="http://www.w3.org/2000/svg">
 <!-- Created with Method Draw - http://github.com/duopixel/Method-Draw/ -->
 <g>
  <title>background</title>
  <rect fill="#262827" id="canvas_background" height="602" width="1922" y="-1" x="-1"/>
  <g display="none" overflow="visible" y="0" x="0" height="100%" width="100%" id="canvasGrid">
   <rect fill="url(#gridpattern)" stroke-width="0" y="0" x="0" height="100%" width="100%"/>
  </g>
 </g>
 <g>
  <title>Layer 1</title>
  <path stroke="#5f605f" id="svg_28" d="m52.99273,531.60468c197.55863,17.93341 237.46946,33.14972 492.89887,-1.63031c255.42926,-34.78006 267.40259,-34.50836 447.00128,-2.17377c179.59882,32.33453 345.2287,36.41034 514.84979,2.98889c169.62097,-33.42145 265.4071,-27.98706 329.2644,7.0647" opacity="0.5" fill-opacity="0" stroke-opacity="null" stroke-width="5" fill="#e3e8e3"/>
  <path stroke="#5f605f" id="svg_29" d="m40.99263,497.6044c145.55824,-42.06754 93.46817,-0.8508 348.89708,-35.63083c255.43097,-34.78006 285.40271,1.49216 465.0014,33.82675c179.59998,32.33456 145.23004,10.40997 314.85132,-23.01151c169.62097,-33.42145 597.40747,8.01352 661.26477,43.06531" opacity="0.5" fill-opacity="0" stroke-opacity="null" stroke-width="5" fill="#e3e8e3"/>
  <path stroke="#5f605f" id="svg_30" d="m32.99257,457.60406c197.55862,17.93341 237.46947,33.14972 492.89885,-1.63031c255.42926,-34.78006 267.40259,-34.50836 447.00128,-2.17377c179.59888,32.33453 345.22876,36.41034 514.84985,2.98889c169.62097,-33.42145 265.4071,-27.98706 329.2644,7.0647" opacity="0.5" fill-opacity="0" stroke-opacity="null" stroke-width="5" fill="#e3e8e3"/>
  <path stroke="#5f605f" id="svg_32" d="m52.99273,531.60468c197.55863,17.93341 237.46946,33.14972 492.89887,-1.63031c255.42926,-34.78006 267.40259,-34.50836 447.00128,-2.17377c179.59882,32.33453 345.2287,36.41034 514.84979,2.98889c169.62097,-33.42145 265.4071,-27.98706 329.2644,7.0647" opacity="0.5" fill-opacity="0" stroke-opacity="null" stroke-width="5" fill="#e3e8e3"/>
  <path stroke="#5f605f" id="svg_33" d="m52.99273,531.60468c197.55863,17.93341 237.46946,33.14972 492.89887,-1.63031c255.42926,-34.78006 267.40259,-34.50836 447.00128,-2.17377c179.59882,32.33453 345.2287,36.41034 514.84979,2.98889c169.62097,-33.42145 265.4071,-27.98706 329.2644,7.0647" opacity="0.5" fill-opacity="0" stroke-opacity="null" stroke-width="5" fill="#e3e8e3"/>
 </g>
</svg>